<svg width="36" height="36" viewBox="0 0 36 36" fill="none" xmlns="http://www.w3.org/2000/svg">
<path d="M35.8852 11.833C35.8852 6.383 31.4672 1.965 26.0182 1.965C22.7102 1.965 19.7912 3.598 18.0002 6.094C16.2092 3.598 13.2902 1.965 9.98323 1.965C4.53323 1.965 0.115234 6.382 0.115234 11.833C0.115234 12.605 0.213234 13.353 0.381234 14.074C1.75123 22.587 11.2162 31.568 18.0002 34.034C24.7832 31.568 34.2492 22.587 35.6172 14.075C35.7872 13.354 35.8852 12.606 35.8852 11.833Z" fill="url(#paint0_linear_168_72)"/>
<path d="M35.8852 11.833C35.8852 6.383 31.4672 1.965 26.0182 1.965C22.7102 1.965 19.7912 3.598 18.0002 6.094C16.2092 3.598 13.2902 1.965 9.98323 1.965C4.53323 1.965 0.115234 6.382 0.115234 11.833C0.115234 12.605 0.213234 13.353 0.381234 14.074C1.75123 22.587 11.2162 31.568 18.0002 34.034C24.7832 31.568 34.2492 22.587 35.6172 14.075C35.7872 13.354 35.8852 12.606 35.8852 11.833Z" fill="#3456E5" fill-opacity="0.13"/>
<path d="M35.8852 11.833C35.8852 6.383 31.4672 1.965 26.0182 1.965C22.7102 1.965 19.7912 3.598 18.0002 6.094C16.2092 3.598 13.2902 1.965 9.98323 1.965C4.53323 1.965 0.115234 6.382 0.115234 11.833C0.115234 12.605 0.213234 13.353 0.381234 14.074C1.75123 22.587 11.2162 31.568 18.0002 34.034C24.7832 31.568 34.2492 22.587 35.6172 14.075C35.7872 13.354 35.8852 12.606 35.8852 11.833Z" stroke="#BBBBBB" stroke-width="0.2"/>
<defs>
<linearGradient id="paint0_linear_168_72" x1="10.5" y1="36" x2="27.5" y2="-2" gradientUnits="userSpaceOnUse">
<stop offset="0.144231" stop-color="#7DE8D2"/>
<stop offset="0.663462" stop-color="#9DE0E6"/>
<stop offset="0.995192" stop-color="#DDEFC2"/>
</linearGradient>
</defs>
</svg>
